<?xml version="1.0" encoding="UTF-8"?>
<svg width="18px" height="18px" viewBox="0 0 18 18" version="1.1" xmlns="http://www.w3.org/2000/svg" xmlns:xlink="http://www.w3.org/1999/xlink">
    <title>搜索</title>
    <g id="移动端" stroke="none" stroke-width="1" fill="none" fill-rule="evenodd">
        <g id="菜单" transform="translate(-34.000000, -64.000000)" fill="#D0D4D9" fill-rule="nonzero">
            <g id="搜索栏" transform="translate(20.000000, 50.000000)">
                <path d="M21.1614186,28.1272938 C18.2810568,28.1395213 15.6742454,26.4241468 14.547221,23.7748511 C13.4368025,21.1348849 14.0483465,18.0851002 16.0908633,16.0766706 C18.1476616,14.0505829 21.2146635,13.444514 23.8881685,14.5358487 C27.0365721,15.8035421 28.8348372,19.132916 28.1677334,22.4591919 C27.5006296,25.7854678 24.5574201,28.1649515 21.1633959,28.1219581 L21.1614186,28.1272938 Z M15.5161169,18.7663566 C14.5686674,21.0190863 15.0909468,23.6214861 16.8343426,25.3347767 C18.5923768,27.0616451 21.2112857,27.574515 23.4913826,26.6384477 C26.1747168,25.5551379 27.7058333,22.7156178 27.1357021,19.8799035 C26.5655709,17.0441893 24.0558253,15.0162117 21.1620777,15.0529693 C18.7031259,15.0415413 16.4776931,16.5051349 15.5161169,18.7663566 Z M31.4701495,32 C31.3317905,31.9979855 31.1996483,31.9422279 31.1017054,31.8445344 L25.3804,26.1542647 C25.2812404,26.0572376 25.225355,25.9243871 25.225355,25.7856927 C25.225355,25.6469984 25.2812404,25.5141479 25.3804,25.4171208 C25.587548,25.2139045 25.9193678,25.2139045 26.1265158,25.4171208 L31.8491394,31.1067318 C31.9965876,31.2537268 32.0405898,31.4751788 31.9605295,31.66733 C31.8787653,31.8603091 31.6903662,31.9865295 31.4806953,31.9888012 L31.4701495,32 Z" id="搜索"></path>
            </g>
        </g>
    </g>
</svg>