<?xml version="1.0" encoding="UTF-8"?>
<svg width="16px" height="20px" viewBox="0 0 16 20" version="1.1" xmlns="http://www.w3.org/2000/svg" xmlns:xlink="http://www.w3.org/1999/xlink">
    <title>形状</title>
    <g id="移动端" stroke="none" stroke-width="1" fill="none" fill-rule="evenodd">
        <g id="移动端---底部导航栏" transform="translate(-330.000000, -15.000000)" fill="#D0D4D9" fill-rule="nonzero">
            <g id="-mockplus-" transform="translate(326.000000, 13.000000)">
                <g id="移动端/ICON/底部导航/我的-NO" transform="translate(4.000000, 2.400000)">
                    <path d="M15.8694659,4.62207484 C15.8346211,4.26528688 15.5151495,3.99688794 15.1419558,4.01086909 L12.1396715,4.01086909 L12.1396715,3.7528601 C11.9906774,1.64043961 10.1613756,0 7.95474818,0 C5.74812077,0 3.91881891,1.64043961 3.76982487,3.7528601 L3.76982487,4.01504399 L0.76754052,4.01504399 C0.405603513,4.02973614 0.103010438,4.2839548 0.040030458,4.62624974 L0,18.5019563 C0.0188982817,18.6873546 0.0810614469,18.8662907 0.181877516,19.0254891 C0.306525344,19.1346704 0.4682659,19.1966869 0.637006418,19.2 L15.2724899,19.2 C15.4657144,19.1818672 15.6522039,19.1222218 15.8181225,19.0254891 C15.9189386,18.8662907 15.9811017,18.6873546 16,18.5019563 L15.8694659,4.62207484 Z M5.13434135,3.7528601 C5.22989951,2.3393131 6.4793531,1.25476532 7.95474818,1.30469717 C8.66849482,1.26516403 9.36893309,1.50203809 9.89911,1.96224101 C10.4292869,2.42244393 10.744874,3.06749781 10.775155,3.7528601 L10.775155,4.01504399 L5.13434135,4.01504399 L5.13434135,3.7528601 Z M1.36451648,17.8907505 L1.40454694,5.32011856 L14.5049494,5.32011856 L14.453606,17.8907505 L1.36451648,17.8907505 Z" id="形状"></path>
                </g>
            </g>
        </g>
    </g>
</svg>