<?xml version="1.0" encoding="UTF-8"?>
<svg width="1144px" height="60px" viewBox="0 0 1144 60" version="1.1" xmlns="http://www.w3.org/2000/svg" xmlns:xlink="http://www.w3.org/1999/xlink">
    <title>编组 3</title>
    <g id="页面-1" stroke="none" stroke-width="1" fill="none" fill-rule="evenodd">
        <g id="登录框2" transform="translate(-728.000000, -1038.000000)">
            <g id="编组-7" transform="translate(724.000000, 345.201010)">
                <g id="编组-3" transform="translate(4.428571, 694.962320)">
                    <polyline id="路径-3" stroke="#FFFFFF" stroke-width="3" points="25.2123587 24.3850708 385.968706 24.3850708 417.004595 55.4209595 643.791155 55.4209595"></polyline>
                    <rect id="矩形备份-5" fill="#FFFFFF" x="195.571429" y="25.8366699" width="4" height="22"></rect>
                    <rect id="矩形" fill="#FFFFFF" x="735.571429" y="15.8366699" width="28" height="28"></rect>
                    <rect id="矩形备份-3" fill="#FFFFFF" x="0" y="22.8366699" width="4" height="4"></rect>
                    <rect id="矩形备份-6" fill="#FFFFFF" x="8" y="22.8366699" width="4" height="4"></rect>
                    <rect id="矩形备份-7" fill="#FFFFFF" x="16" y="22.8366699" width="4" height="4"></rect>
                    <rect id="矩形备份-3" fill="#FFFFFF" x="917" y="27.8366699" width="4" height="4"></rect>
                    <rect id="矩形备份-6" fill="#FFFFFF" x="925" y="27.8366699" width="4" height="4"></rect>
                    <rect id="矩形备份-7" fill="#FFFFFF" x="933" y="27.8366699" width="4" height="4"></rect>
                    <rect id="矩形备份-14" fill="#FFFFFF" x="941" y="27.8366699" width="4" height="4"></rect>
                    <rect id="矩形备份-15" fill="#FFFFFF" x="949" y="27.8366699" width="4" height="4"></rect>
                    <line x1="478.852312" y1="30" x2="912" y2="30" id="路径-4" stroke="#FFFFFF" stroke-width="3"></line>
                    <polyline id="路径-4备份" stroke="#FFFFFF" stroke-width="3" points="957.852312 30 1103.83827 30 1142 0"></polyline>
                </g>
            </g>
        </g>
    </g>
</svg>