<?xml version="1.0" encoding="utf-8"?>
<!-- Generator: Adobe Illustrator 16.0.0, SVG Export Plug-In . SVG Version: 6.00 Build 0)  -->
<!DOCTYPE svg PUBLIC "-//W3C//DTD SVG 1.1//EN" "http://www.w3.org/Graphics/SVG/1.1/DTD/svg11.dtd">
<svg version="1.1" id="图层_1" xmlns="http://www.w3.org/2000/svg" xmlns:xlink="http://www.w3.org/1999/xlink" x="0px" y="0px"
	 width="1148px" height="52px" viewBox="0 0 1148 52" enable-background="new 0 0 1148 52" xml:space="preserve">
<title>编组</title>
<g id="页面-1">
	<g id="登录框2" transform="translate(-728.000000, -1038.000000)">
		<g id="编组-7" transform="translate(724.000000, 345.201010)">
			<g id="编组-3" transform="translate(4.428571, 694.962320)">
				<polyline id="路径-3" fill="none" stroke="#FFFFFF" stroke-width="3" points="24.949,19.616 388.075,19.616 419.315,47.337 
					647.591,47.337 				"/>
				<rect id="矩形备份-5" x="196.427" y="20.913" fill="#FFFFFF" width="4.026" height="19.649"/>
				<rect id="矩形" x="739.974" y="11.982" fill="#FFFFFF" width="28.184" height="25.009"/>
				<rect id="矩形备份-3" x="-0.429" y="18.234" fill="#FFFFFF" width="4.026" height="3.572"/>
				<rect id="矩形备份-6" x="7.624" y="18.234" fill="#FFFFFF" width="4.026" height="3.572"/>
				<rect id="矩形备份-7" x="15.676" y="18.234" fill="#FFFFFF" width="4.026" height="3.572"/>
				<rect id="矩形备份-3_1_" x="922.594" y="22.699" fill="#FFFFFF" width="4.026" height="3.572"/>
				<rect id="矩形备份-6_1_" x="930.647" y="22.699" fill="#FFFFFF" width="4.026" height="3.572"/>
				<rect id="矩形备份-7_1_" x="938.698" y="22.699" fill="#FFFFFF" width="4.026" height="3.572"/>
				<rect id="矩形备份-14" x="946.751" y="22.699" fill="#FFFFFF" width="4.026" height="3.572"/>
				<rect id="矩形备份-15" x="954.804" y="22.699" fill="#FFFFFF" width="4.026" height="3.572"/>
				<line id="路径-4" fill="none" stroke="#FFFFFF" stroke-width="3" x1="481.569" y1="24.632" x2="917.561" y2="24.632"/>
				<polyline id="路径-4备份" fill="none" stroke="#FFFFFF" stroke-width="3" points="963.715,24.632 1110.658,24.632 
					1149.071,-2.163 				"/>
			</g>
		</g>
	</g>
</g>
</svg>
