<?xml version="1.0" encoding="UTF-8"?>
<svg width="604px" height="72px" viewBox="0 0 604 72" version="1.1" xmlns="http://www.w3.org/2000/svg" xmlns:xlink="http://www.w3.org/1999/xlink">
    <title>编组</title>
    <g id="页面-1" stroke="none" stroke-width="1" fill="none" fill-rule="evenodd">
        <g id="登录框2" transform="translate(-978.000000, -252.000000)" fill="#FFFFFF">
            <g id="编组" transform="translate(978.000000, 252.000000)">
                <path d="M598.875485,36.0361824 L602.25725,36.0361824 L601.582972,39.265276 L597.13718,39.265276 L599.528275,45.3069965 L590.156547,45.3069965 L587.973664,39.265276 L575.262406,39.265276 L570.515042,45.3069965 L560.87138,45.3069965 L565.848443,39.265276 L561.632351,39.265276 L562.30663,36.0361824 L565.729889,36.0361824 L570.853663,11.4904929 L604,11.4904929 L598.875485,36.0361824 Z M575.268334,36.0361824 L589.336299,36.0361824 L590.060222,32.5693188 L575.992257,32.5693188 L575.268334,36.0361824 Z M576.550203,29.8947757 L591.245766,29.8947757 L591.853358,26.4079749 L577.878754,26.4079749 L576.550203,29.8947757 Z M577.836519,23.7334318 L591.905225,23.7334318 L592.558756,20.603286 L578.49005,20.603286 L577.836519,23.7334318 Z M579.718571,14.7195865 L579.048738,17.9294813 L593.116703,17.9294813 L593.787277,14.7195865 L579.718571,14.7195865 Z M548.548388,14.9772937 L542.944468,41.8209341 L558.139441,41.8209341 L557.411813,45.3069965 L514.105362,45.3069965 L509.592143,45.3069965 L505.50572,45.3069965 L502.656709,33.460587 L495.590865,45.3069965 L486.908234,45.3069965 L494.735791,32.708141 L493.273866,26.0121839 L483.401246,45.3069965 L474.342947,45.3069965 L482.850709,29.1814658 L469.15619,29.1814658 L465.789985,45.3069965 L456.2508,45.3069965 L459.617745,29.1814658 L449.577667,29.1814658 L446.210721,45.3069965 L442.959366,45.3069965 L436.672276,45.3069965 L390.029258,45.3069965 L394.267579,23.7932435 L388.843714,23.7932435 L387.781911,26.3880377 L388.866684,26.3880377 L388.081261,30.1524829 L385.116659,30.1524829 L384.720984,45.2479232 L377.01865,45.2479232 L376.788951,30.1524829 L374.263001,30.1524829 L368.94954,45.3069965 L361.101236,45.3069965 L366.561409,30.1524829 L364.515604,30.1524829 L365.888612,26.3880377 L367.931453,26.3880377 L371.556255,16.3241647 L368.676123,16.3241647 L369.461546,12.6269153 L372.9263,12.6269153 L373.611693,10.6782352 L381.105074,10.6782352 L380.440428,12.6269153 L390.668711,12.6269153 L389.451305,20.3064427 L403.173981,20.3064427 L398.602226,41.8209341 L437.399904,41.8209341 L440.038481,29.1814658 L434.048518,29.1814658 L434.780592,25.6747277 L440.770555,25.6747277 L443.003824,14.9772937 L438.182363,14.9772937 L438.910732,11.4904929 L477.400169,11.4904929 L476.6718,14.9772937 L472.121533,14.9772937 L469.888264,25.6747277 L484.700158,25.6747277 L488.505014,18.8296105 L480.113584,18.8296105 L483.569445,11.5104301 L489.580896,11.5104301 L487.709218,14.9772937 L490.338903,14.9772937 L492.613666,10.6782352 L501.13032,10.6782352 L498.917798,14.9772937 L520.353921,14.9772937 L519.626293,18.8296105 L497.125403,18.8296105 L495.914666,20.8609932 L517.288548,20.8609932 L516.573517,24.2879823 L511.017019,32.8070888 L513.243619,41.8209341 L533.113342,41.8209341 L539.037359,14.9772937 L524.210645,14.9772937 L524.825646,11.4904929 L563.845614,11.4904929 L563.117245,14.9772937 L548.548388,14.9772937 Z M379.112618,16.3241647 L375.591552,26.3880377 L380.559723,26.3880377 L382.660359,16.3241647 L379.112618,16.3241647 Z M452.54301,14.9772937 L450.309741,25.6747277 L460.349078,25.6747277 L462.583088,14.9772937 L452.54301,14.9772937 Z M494.122272,24.347794 L493.482078,25.6156544 L501.079935,25.6156544 L502.946426,32.1727894 L508.295454,24.347794 L494.122272,24.347794 Z M509.020118,10.6782352 L517.410808,10.6782352 L518.406665,13.9073288 L510.036722,13.9073288 L509.020118,10.6782352 Z M422.539847,40.136607 L421.796659,29.3003507 L427.80811,29.3003507 L428.718756,40.136607 L422.539847,40.136607 Z M406.40533,40.136607 L400.01821,40.136607 L405.912588,29.3003507 L411.84031,29.3003507 L406.40533,40.136607 Z M434.147067,15.3339487 L423.669078,15.3339487 L423.267475,17.2553074 L432.722932,17.2553074 L430.456319,28.576703 L421.001603,28.576703 L418.432677,40.4142514 L410.626609,40.4142514 L413.194794,28.576703 L403.802319,28.576703 L406.241577,17.2553074 L415.461407,17.2553074 L415.862269,15.3339487 L405.863684,15.3339487 L406.037811,12.1048551 L416.536547,12.1048551 L416.829969,10.6981724 L425.210286,10.6981724 L424.343356,12.1048551 L434.821345,12.1048551 L434.147067,15.3339487 Z M412.110762,20.2074949 L411.077116,25.6451911 L413.811277,25.6451911 L414.844924,20.2074949 L412.110762,20.2074949 Z M421.690701,25.6451911 L424.414489,25.6451911 L425.448136,20.2074949 L422.651733,20.2074949 L421.690701,25.6451911 Z M395.456828,10.6981724 L403.61115,10.6981724 L403.82603,17.1312535 L395.978468,17.1312535 L395.456828,10.6981724 Z M366.725903,18.1672512 L365.473672,18.1672512 L359.811216,45.2870593 L352.425275,45.2870593 L357.666863,18.1672512 L356.285703,18.1672512 L350.332789,44 L345.698793,44 L349.628131,25.1799889 L335.293419,25.1799889 L334.013031,28.0125531 L344.825195,28.0125531 L341.235218,45.2080487 L335.745407,45.2080487 L339.021214,31.2416467 L336.824253,31.2416467 L333.908555,45.2080487 L330.151861,45.2080487 L333.067559,31.2416467 L331.404092,31.2416467 L328.921859,45.2080487 L324.690948,45.2080487 L327.473272,31.2416467 L325.740895,31.2416467 L322.825197,45.2080487 L317.335386,45.2080487 L317.339832,45.1881115 L297.682766,45.1881115 L297.665724,45.2678604 L290.151596,45.2678604 L295.921492,17.6318996 L303.43562,17.6318996 L298.410394,41.7020491 L303.477855,41.7020491 L307.856218,17.8105963 L312.990366,17.8105963 L308.695732,41.7020491 L318.06746,41.7020491 L320.925362,28.0125531 L325.955775,28.0125531 L327.236163,25.1799889 L321.162471,25.1799889 L321.836009,21.9508953 L350.302409,21.9508953 L352.481588,11.5104301 L357.115584,11.5104301 L356.511698,14.402806 L358.453027,14.402806 L359.230299,10.6782352 L367.037108,10.6782352 L366.259095,14.402806 L367.511326,14.402806 L366.725903,18.1672512 Z M323.683235,20.1875577 L324.934725,11.5104301 L331.008417,11.5104301 L329.871035,16.9584641 L332.354751,16.9584641 L333.657367,10.7181097 L340.02374,10.7181097 L338.721124,16.9584641 L341.163345,16.9584641 L342.300726,11.5104301 L348.374418,11.5104301 L346.562758,20.1875577 L323.683235,20.1875577 Z M322.734799,16.0472586 L321.670773,16.0472586 L315.822335,39.8597009 L310.896399,39.8597009 L316.640361,16.0472586 L307.602067,16.0472586 L308.334141,12.5405206 L312.174564,12.5405206 L312.56357,10.6782352 L320.328145,10.6782352 L319.939138,12.5405206 L323.466873,12.5405206 L322.734799,16.0472586 Z M304.835303,16.0273214 L264.446032,16.0273214 L264.468261,15.9232047 L253.736121,15.9232047 L253.098891,19.7120177 L260.550778,19.7120177 L259.971343,22.4855086 L254.581562,30.5091379 L255.561859,45.3069965 L247.818032,45.3069965 L246.854777,30.8259184 L240.011963,45.3069965 L231.913214,45.3069965 L239.293968,30.548274 L237.762393,24.4866162 L245.21428,24.4866162 L246.925169,30.3902529 L251.807388,23.1988185 L237.425995,23.1988185 L238.154364,19.7120177 L244.416261,19.7120177 L245.05275,16.6616208 L234.637743,16.6616208 L233.1158,23.9512645 L235.886269,23.2778291 L235.112702,26.9824626 L232.337787,27.6758353 L228.656672,45.3069965 L210.920188,45.3069965 L208.118599,45.3069965 L202.257564,45.3069965 L203.460891,39.542182 L192.413841,39.542182 L193.021433,36.0553812 L204.18926,36.0553812 L206.186902,26.4869854 L198.933594,25.5366439 L199.7983,21.3963448 L207.047163,22.3666236 L208.803991,16.7605686 L201.080911,15.7496769 L201.941172,11.6293151 L209.09445,12.6269153 L209.487161,10.6782352 L218.149785,10.6782352 L212.851143,36.0553812 L214.500532,36.0553812 L213.772163,39.542182 L212.123515,39.542182 L211.647816,41.8209341 L220.409729,41.8209341 L222.870475,30.0335979 L218.243147,31.2025106 L219.041167,27.8973602 L223.660344,26.2492154 L225.662431,16.6616208 L221.174405,16.6616208 L221.902774,13.17482 L226.390059,13.17482 L226.910958,10.6782352 L235.886269,10.6782352 L235.365371,13.17482 L245.781118,13.17482 L246.302017,10.6782352 L254.985388,10.6782352 L254.463749,13.17482 L265.041768,13.17482 L265.12031,12.7982278 L269.837294,12.7982278 L269.432727,10.6390991 L279.034154,10.6390991 L279.52245,12.7982278 L291.294905,12.7982278 L292.601227,10.6390991 L301.889967,10.6390991 L300.54141,12.7982278 L305.508841,12.7982278 L304.835303,16.0273214 Z M195.273967,14.9972309 L194.256622,18.147314 L198.764654,18.147314 L198.037026,21.6333764 L193.528253,21.6333764 L192.949559,24.7590917 L197.019681,24.7590917 L196.291312,27.8936681 L192.22119,27.8936681 L188.586015,45.3069965 L179.631451,45.3069965 L183.266626,27.8936681 L181.054104,27.8936681 L177.418929,45.3069965 L176.880988,45.3069965 L172.784932,45.3069965 L147.763279,45.3069965 L147.775875,45.2479232 L129.845999,45.2479232 L132.447528,35.1840502 L124.855599,35.1840502 L122.741625,45.3069965 L113.495121,45.3069965 L115.768402,35.1840502 L101.289942,35.1840502 L99.1767092,45.3069965 L89.9087165,45.3069965 L92.0226902,35.1840502 L87.9525684,35.1840502 L88.6801962,31.6972494 L92.750318,31.6972494 L93.3290119,28.9237585 L102.597004,28.9237585 L102.01757,31.6972494 L116.850211,31.6972494 L116.915416,28.9237585 L126.161921,28.9237585 L125.583227,31.6972494 L133.05512,31.6972494 L133.518964,27.6558981 L138.227057,27.6558981 L134.849737,42.0779029 L136.665102,42.0779029 L140.15653,25.3579472 L133.894633,25.3579472 L136.785138,11.5104301 L153.044879,11.5104301 L150.154373,25.3579472 L147.086037,25.3579472 L146.142788,29.8748385 L149.315601,29.8748385 L148.641323,33.1039321 L145.46851,33.1039321 L143.59535,42.0779029 L148.437557,42.0779029 L153.322,18.6819273 L167.828616,18.6819273 L164.049694,36.5907329 L155.949462,36.5907329 L154.808376,42.0579657 L173.463657,42.0579657 L177.668634,24.7590917 L183.994995,24.7590917 L185.233889,21.6333764 L176.955085,21.6333764 L177.683453,18.147314 L185.84889,18.147314 L185.959294,14.9972309 L178.758594,14.9972309 L179.486222,11.5104301 L199.899813,11.5104301 L199.172185,14.9972309 L195.273967,14.9972309 Z M144.404484,22.4064981 L146.067209,14.4426805 L142.539474,14.4426805 L140.876748,22.4064981 L144.404484,22.4064981 Z M159.232679,33.3616393 L161.623033,21.9110209 L159.014094,21.9110209 L156.623741,33.3616393 L159.232679,33.3616393 Z M170.749501,37.0862101 L165.479757,37.0862101 L169.602487,16.6438988 L153.050065,16.6438988 L156.458505,10.7579841 L164.486863,10.7579841 L162.607775,12.7982278 L175.819926,12.7982278 L170.749501,37.0862101 Z M132.032588,15.8094886 L127.689791,15.8094886 L130.687736,20.5442127 L121.316008,20.5442127 L118.526274,15.8094886 L106.858295,15.8094886 L101.904202,20.5442127 L91.7603885,20.5442127 L96.860452,15.8094886 L92.9170352,15.8094886 L93.2971504,12.8262876 L100.331874,12.8262876 L102.497715,10.7579841 L112.108775,10.7579841 L110.225241,12.8262876 L132.580161,12.8262876 L132.032588,15.8094886 Z M106.786422,19.5539967 L116.325608,19.5539967 L115.729872,22.4064981 L130.549175,22.4064981 L129.875638,25.6355917 L115.055593,25.6355917 L114.261279,29.439173 L104.722834,29.439173 L105.517148,25.6355917 L90.6971035,25.6355917 L91.3713818,22.4064981 L106.190686,22.4064981 L106.786422,19.5539967 Z M31.3946952,31.7511538 L42.9752402,31.7511538 C46.6585782,31.7511538 49.643927,28.7760753 49.643927,25.1054089 C49.643927,21.6282075 46.6585782,18.459664 42.9752402,18.459664 L18.1091893,18.459664 L0,0 L43.3457228,0 C57.1284164,0 68.1680568,11.0747646 68.1680568,24.7362008 C68.1680568,38.4714787 61.457876,47.6817427 48.5324792,49.4731401 L31.3946952,31.7511538 Z M65.673968,72 L39.5327159,72 L0.266006504,31.7511538 L26.4079995,31.7511538 L65.673968,72 Z M216.997585,59.7961972 L219.642089,59.7961972 L219.642089,52.9606793 L221.921298,52.9606793 L221.921298,60.7295551 L214.712448,60.7295551 L214.712448,52.9606793 L216.997585,52.9606793 L216.997585,59.7961972 Z M227.567453,60.8506553 L225.224521,60.8506553 L225.224521,52.9496031 L227.567453,52.9496031 L227.567453,60.8506553 Z M240.637338,58.6789736 L242.282281,52.9555104 L244.920858,52.9606793 L244.920858,60.7295551 L242.938035,60.7295551 L242.938035,55.084364 L241.324954,60.6557135 L239.907487,60.6557135 L238.188448,54.8894222 L238.188448,60.7295551 L236.205625,60.7295551 L236.205625,52.9606793 L238.828642,52.9555104 L240.637338,58.6789736 Z M254.128832,52.9555104 L256.59106,60.7398929 L254.470417,60.734724 L253.598301,58.2470002 L250.900447,58.2470002 L250.01203,60.734724 L247.965484,60.7398929 L251.085688,52.9555104 L254.128832,52.9555104 Z M253.322662,57.4613255 L252.260118,54.4308658 L251.181273,57.4613255 L253.322662,57.4613255 Z M285.949582,18.2063873 L280.291572,45.3069965 L271.900882,45.3069965 L273.786639,36.2739524 L270.178138,36.2739524 L267.872255,45.3069965 L259.481565,45.3069965 L265.138834,18.2063873 L285.949582,18.2063873 Z M276.884614,21.6282075 L272.855987,21.6282075 L272.215793,25.7146022 L275.99101,25.7146022 L276.884614,21.6282075 Z M274.403122,33.3217648 L275.374527,28.6667897 L271.34664,28.6667897 L270.374494,33.3217648 L274.403122,33.3217648 Z M266.923819,55.3738231 L264.860972,55.3738231 L264.860972,53.7618608 L261.978618,53.7618608 L261.978618,55.7961972 L266.923819,55.7961972 L266.923819,60.7295551 L259.693481,60.7295551 L259.693481,57.588333 L261.756328,57.588333 L261.756328,59.9490493 L264.638683,59.9490493 L264.638683,56.5811335 L259.693481,56.5811335 L259.693481,52.9606793 L266.923819,52.9606793 L266.923819,55.3738231 Z M277.631507,53.9036367 L275.140382,53.9036367 L275.140382,60.8609932 L272.781149,60.8609932 L272.781149,53.9036367 L270.407097,53.9036367 L270.407097,52.9710172 L277.631507,52.9710172 L277.631507,53.9036367 Z M282.765655,44.752446 L288.345123,18.028429 L293.542253,18.028429 L287.963526,44.752446 L282.765655,44.752446 Z M288.085044,53.8039505 L283.208752,53.8039505 L283.208752,55.7858593 L287.979086,55.7858593 L287.979086,56.6446373 L283.208752,56.6446373 L283.208752,60.2916744 L288.085044,60.2916744 L288.085044,60.7184789 L281.070327,60.7184789 L281.070327,52.9444342 L288.085044,52.9444342 L288.085044,53.8039505 Z M298.713449,57.0190142 L297.327844,57.0190142 L298.729009,60.7398929 L296.635042,60.7398929 L295.296858,57.0190142 L293.752687,57.0190142 L293.752687,60.7295551 L291.462364,60.7295551 L291.462364,52.9710172 L298.713449,52.9710172 L298.713449,57.0190142 Z M296.497222,53.8297951 L293.752687,53.8297951 L293.752687,56.5183681 L296.497222,56.5183681 L296.497222,53.8297951 Z M314.54417,60.7184789 L309.577481,60.7184789 L309.577481,60.7295551 L307.293085,60.7184789 L307.293085,52.9444342 L314.54417,52.9444342 L314.54417,60.7184789 Z M312.259034,53.8777921 L309.577481,53.8777921 L309.577481,59.7858593 L312.259034,59.7858593 L312.259034,53.8777921 Z M325.151087,53.8777921 L320.274795,53.8777921 L320.274795,55.7858593 L325.045129,55.7858593 L325.045129,56.6446373 L320.274795,56.6446373 L320.274795,60.871331 L318.296418,60.8609932 L318.296418,52.9444342 L325.151087,52.9444342 L325.151087,53.8777921 Z M340.949947,57.0190142 L339.564342,57.0190142 L340.965507,60.7398929 L338.870798,60.7398929 L337.533356,57.0190142 L335.988444,57.0190142 L335.988444,60.7295551 L333.698861,60.7295551 L333.698861,52.9710172 L340.949947,52.9710172 L340.949947,57.0190142 Z M338.73372,53.8297951 L335.988444,53.8297951 L335.988444,56.5183681 L338.73372,56.5183681 L338.73372,53.8297951 Z M346.659084,59.7961972 L349.303588,59.7961972 L349.303588,52.9606793 L351.583538,52.9606793 L351.583538,60.7295551 L344.374688,60.7295551 L344.374688,52.9606793 L346.659084,52.9606793 L346.659084,59.7961972 Z M357.245253,59.7961972 L359.889758,59.7961972 L359.889758,52.9606793 L362.168967,52.9606793 L362.168967,60.7295551 L355.307629,60.7295551 L355.307629,52.9606793 L357.245253,52.9606793 L357.245253,59.7961972 Z M367.831423,59.7961972 L370.475928,59.7961972 L370.475928,52.9606793 L373.201939,52.9606793 L373.201939,60.7295551 L365.547027,60.7295551 L365.547027,52.9606793 L367.831423,52.9606793 L367.831423,59.7961972 Z M378.417593,59.7961972 L381.062098,59.7961972 L381.062098,52.9606793 L383.341306,52.9606793 L383.341306,60.7295551 L376.132456,60.7295551 L376.132456,52.9606793 L378.417593,52.9606793 L378.417593,59.7961972 Z M392.245485,58.7262322 L392.245485,52.9496031 L394.601014,52.9496031 L394.601014,60.71331 L391.864629,60.71331 L388.64884,54.6103009 L388.64884,60.7450618 L386.660831,60.7450618 L386.660831,52.9496031 L389.257173,52.9496031 L392.245485,58.7262322 Z M410.154614,53.8777921 L405.278322,53.8777921 L405.278322,59.7858593 L410.154614,59.7858593 L410.154614,60.7184789 L402.919089,60.7184789 L402.919089,52.9444342 L410.154614,52.9444342 L410.154614,53.8777921 Z M420.793392,60.7184789 L415.827443,60.7184789 L415.827443,60.7295551 L413.542307,60.7184789 L413.542307,52.9444342 L420.793392,52.9444342 L420.793392,60.7184789 Z M418.508256,53.8777921 L415.827443,53.8777921 L415.827443,59.7858593 L418.508256,59.7858593 L418.508256,53.8777921 Z M426.053504,60.3500092 L424.101802,60.3500092 L424.101802,59.036367 L426.053504,59.036367 L426.053504,60.3500092 Z M431.330658,60.2126638 L430.652675,61.7360162 L429.457498,61.7360162 L429.975433,60.3130884 L429.298932,60.3182573 L429.298932,58.5157836 L431.330658,58.5157836 L431.330658,60.2126638 Z M442.29472,59.7910282 L447.170271,59.7910282 L447.170271,60.7243862 L439.935487,60.7243862 L439.935487,52.9606793 L442.29472,52.9606793 L442.29472,59.7910282 Z M457.740881,53.9036367 L455.249756,53.9036367 L455.249756,60.8609932 L452.891263,60.8609932 L452.891263,53.9036367 L450.603163,53.9036367 L450.603163,52.9710172 L457.740881,52.9710172 L457.740881,53.9036367 Z M463.238842,53.7987816 L464.029452,52.9444342 L468.210719,52.9444342 L468.210719,60.7184789 L463.794566,60.7184789 L463.244029,59.9741554 L463.244029,60.7295551 L460.959633,60.7184789 L460.959633,52.9444342 L463.238842,52.9444342 L463.238842,53.7987816 Z M463.244029,59.7858593 L465.925582,59.7858593 L465.925582,53.8777921 L463.238842,53.8777921 L463.244029,59.7858593 Z M473.470831,60.3500092 L471.519128,60.3500092 L471.519128,59.036367 L473.470831,59.036367 L473.470831,60.3500092 Z" id="形状"></path>
            </g>
        </g>
    </g>
</svg>