<?xml version="1.0" encoding="utf-8"?>
<!-- Generator: Adobe Illustrator 16.0.0, SVG Export Plug-In . SVG Version: 6.00 Build 0)  -->
<!DOCTYPE svg PUBLIC "-//W3C//DTD SVG 1.1//EN" "http://www.w3.org/Graphics/SVG/1.1/DTD/svg11.dtd">
<svg version="1.1" id="图层_1" xmlns="http://www.w3.org/2000/svg" xmlns:xlink="http://www.w3.org/1999/xlink" x="0px" y="0px"
	 width="66px" height="66px" viewBox="0 0 66 66" enable-background="new 0 0 66 66" xml:space="preserve">
<path id="路径" fill="#FFFFFF" d="M37.648,33L62.254,8.55c1.228-1.218,1.228-3.206,0-4.619L62.06,3.739
	c-1.229-1.218-3.229-1.218-4.456,0L33,28.379L8.395,3.931c-1.225-1.218-3.23-1.218-4.456,0L3.744,4.125
	c-1.225,1.218-1.225,3.206,0,4.619L28.35,33L3.744,57.448c-1.225,1.218-1.225,3.206,0,4.618l0.194,0.192
	c1.226,1.22,3.231,1.22,4.456,0L33,37.618l24.604,24.448c1.228,1.218,3.228,1.218,4.456,0l0.194-0.194
	c1.228-1.218,1.228-3.206,0-4.618L37.648,33z"/>
</svg>
