<svg xmlns="http://www.w3.org/2000/svg" width="80" height="80" viewBox="0 0 80 80"><defs><style>.a{fill:#edf1ff;}.b{fill:#5275f7;}</style></defs><g transform="translate(-80 -846)"><rect class="a" width="80" height="80" rx="10" transform="translate(80 846)"/><g transform="translate(96.27 866)"><path class="b" d="M41.511,0H12.528A5.532,5.532,0,0,0,7,5.526a1.484,1.484,0,1,0,2.965,0,2.564,2.564,0,0,1,2.562-2.561H41.511A2.989,2.989,0,0,1,44.5,5.95V23.588a2.989,2.989,0,0,1-2.985,2.985H40.459V16.411a5.957,5.957,0,0,0-5.95-5.95H5.95A5.957,5.957,0,0,0,0,16.411V34.049A5.958,5.958,0,0,0,5.95,40H34.508a5.958,5.958,0,0,0,5.95-5.951V29.538h1.052a5.957,5.957,0,0,0,5.95-5.95V5.95A5.957,5.957,0,0,0,41.511,0ZM37.493,34.049a2.99,2.99,0,0,1-2.985,2.986H5.95a2.99,2.99,0,0,1-2.985-2.986V16.411A2.989,2.989,0,0,1,5.95,13.427H34.508a2.989,2.989,0,0,1,2.985,2.985Z"/><path class="b" d="M345.263,413.473a1.484,1.484,0,0,0,0-2.965h-1.01v-3.46a1.484,1.484,0,1,0-2.965,0v3.46H337.4v-3.46a1.484,1.484,0,0,0-2.965,0v3.46h-1.193a1.484,1.484,0,0,0,0,2.965h4.529v2.882h-4.529a1.484,1.484,0,0,0,0,2.965h4.529v3.172a1.484,1.484,0,0,0,2.965,0v-3.172h4.531a1.484,1.484,0,0,0,0-2.965h-4.531v-2.882Z" transform="translate(-318.856 -389.66)"/></g></g></svg>