<svg xmlns="http://www.w3.org/2000/svg" width="12" height="14.807" viewBox="0 0 12 14.807"><defs><style>.a{fill:#5275f7;}</style></defs><path class="a" d="M162.053,83.491l.412-.257a3.934,3.934,0,0,1,.425-.229c.935-.425,1.758-.125,2.847,1.147a2.018,2.018,0,0,1,.613,2.11,2.62,2.62,0,0,1-1.231,1.182c-.043.025-.425.248-.524.309-1.547.954-5.093-1.231-7.641-4.964s-3.219-7.733-1.652-8.7l.206-.131.225-.145a2.587,2.587,0,0,1,1.9-.616,2.282,2.282,0,0,1,1.543,1.356c.912,1.712.711,2.524-.461,3.263-.085.054-.384.235-.413.252-.287.178.2,1.369,1.332,3.026,1.144,1.675,2.1,2.591,2.415,2.4Z" transform="translate(-154.46 -73.171)"/></svg>