<svg xmlns="http://www.w3.org/2000/svg" width="80" height="80" viewBox="0 0 80 80"><defs><style>.a{fill:#dcdfea;}.b{fill:#fff;}</style></defs><g transform="translate(-41 -846)"><rect class="a" width="80" height="80" rx="10" transform="translate(41 846)"/><g transform="translate(-33.904 833.232)"><path class="b" d="M518.385,752.264a.661.661,0,0,0-1.046.534v2.008a.665.665,0,0,1-.662.662h-1.345a.665.665,0,0,1-.662-.662V752.8a.661.661,0,0,0-1.046-.534,3.99,3.99,0,0,0,1,6.962v1.559a1.345,1.345,0,0,0,2.691,0v-1.538a4,4,0,0,0,2.669-3.823A3.864,3.864,0,0,0,518.385,752.264Z" transform="translate(-397.097 -689.362)"/><path class="b" d="M103.051,42.421h23.727a1.538,1.538,0,0,0,0-3.075h-1.111a12.069,12.069,0,0,0-21.506.021h-1.111a1.545,1.545,0,0,0-1.538,1.538A1.513,1.513,0,0,0,103.051,42.421Zm4.7-3.054a9.025,9.025,0,0,1,14.309,0ZM132.18,71.038a17.231,17.231,0,0,0-9.2-13.86,16.244,16.244,0,0,0-2.178-.94.672.672,0,0,0-.726.214,6.358,6.358,0,0,1-10.358,0,.58.58,0,0,0-.7-.214,15.127,15.127,0,0,0-2.178.94,17.326,17.326,0,0,0-9.2,13.86,1.6,1.6,0,0,0,.384,1.175,1.508,1.508,0,0,0,1.089.513h14.5a1.538,1.538,0,0,0,0-3.075H100.894a14.283,14.283,0,0,1,7.667-9.931,9.418,9.418,0,0,0,12.685,0,14.37,14.37,0,0,1,7.667,9.931h-4.784a1.538,1.538,0,1,0,0,3.075h6.6a1.508,1.508,0,0,0,1.089-.513,1.529,1.529,0,0,0,.363-1.175Z" transform="translate(0)"/><path class="b" d="M255.49,285.7a1.545,1.545,0,0,0-1.538,1.538v2.627a1.545,1.545,0,0,0,1.538,1.538h1.11a8.118,8.118,0,0,0,16.231,0h1.11a1.545,1.545,0,0,0,1.538-1.538v-2.627a1.538,1.538,0,1,0-3.075,0v1.111H257.027v-1.111A1.531,1.531,0,0,0,255.49,285.7Zm9.226,10.55a5.074,5.074,0,0,1-5.061-4.848h10.123A5.059,5.059,0,0,1,264.715,296.246Z" transform="translate(-149.812 -242.378)"/></g></g></svg>