<?xml version="1.0" encoding="UTF-8"?>
<svg width="66px" height="66px" viewBox="0 0 66 66" version="1.1" xmlns="http://www.w3.org/2000/svg" xmlns:xlink="http://www.w3.org/1999/xlink">
    <title>关  闭备份</title>
    <g id="页面-1" stroke="none" stroke-width="1" fill="none" fill-rule="evenodd">
        <g id="风味捕手内容框" transform="translate(-1107.000000, -43.000000)" fill-rule="nonzero">
            <g id="关--闭备份" transform="translate(1107.000000, 43.000000)">
                <rect id="矩形" fill="#000000" opacity="0" x="0" y="0" width="66" height="66"></rect>
                <path d="M35.888443,33.5 L48.5272873,20.9417863 C49.1575709,20.3155237 49.1575709,19.2937267 48.5272873,18.5685805 L48.4277689,18.469697 C47.7974853,17.8434343 46.7691279,17.8434343 46.1388443,18.469697 L33.5,31.1267943 L20.8611557,18.5685805 C20.2308721,17.9423179 19.2025147,17.9423179 18.5722311,18.5685805 L18.4727127,18.6674641 C17.8424291,19.2937267 17.8424291,20.3155237 18.4727127,21.0406699 L31.111557,33.5 L18.4727127,46.0582137 C17.8424291,46.6844763 17.8424291,47.7062733 18.4727127,48.4314195 L18.5722311,48.530303 C19.2025147,49.1565657 20.2308721,49.1565657 20.8611557,48.530303 L33.5,35.8732057 L46.1388443,48.4314195 C46.7691279,49.0576821 47.7974853,49.0576821 48.4277689,48.4314195 L48.5272873,48.3325359 C49.1575709,47.7062733 49.1575709,46.6844763 48.5272873,45.9593301 L35.888443,33.5 Z" id="路径" fill="#FFFFFF"></path>
            </g>
        </g>
    </g>
</svg>