<svg xmlns="http://www.w3.org/2000/svg" width="800" height="800" viewBox="0 0 800 800"><defs><style>.a,.c{fill:none;}.a{stroke:#fff;}.b{stroke:none;}</style></defs><g transform="translate(-560 -140)"><g class="a" transform="translate(560 140)"><rect class="b" width="800" height="800"/><rect class="c" x="0.5" y="0.5" width="799" height="799"/></g><g class="a" transform="translate(714 294)"><rect class="b" width="492" height="492"/><rect class="c" x="0.5" y="0.5" width="491" height="491"/></g><g class="a" transform="translate(807 387)"><rect class="b" width="306" height="306"/><rect class="c" x="0.5" y="0.5" width="305" height="305"/></g><g class="a" transform="translate(866 446)"><rect class="b" width="188" height="188"/><rect class="c" x="0.5" y="0.5" width="187" height="187"/></g><g class="a" transform="translate(902 482)"><rect class="b" width="116" height="116"/><rect class="c" x="0.5" y="0.5" width="115" height="115"/></g><g class="a" transform="translate(924 504)"><rect class="b" width="72" height="72"/><rect class="c" x="0.5" y="0.5" width="71" height="71"/></g><g class="a" transform="translate(560 140)"><rect class="b" width="800" height="800"/><rect class="c" x="0.5" y="0.5" width="799" height="799"/></g><g class="a" transform="translate(938 518)"><rect class="b" width="44" height="44"/><rect class="c" x="0.5" y="0.5" width="43" height="43"/></g></g></svg>