<svg xmlns="http://www.w3.org/2000/svg" width="1100" height="1100" viewBox="0 0 1100 1100"><defs><style>.a{fill:none;}.b,.c{stroke:none;}.c{fill:#fff;}</style></defs><g class="a" transform="translate(-270.01 -438.888)"><path class="b" d="M444.647,613.236H736.372v925.652h174.6V613.236h284.4l-.152,925.652h174.634l.152-1100h-1100v1100H444.647Z"/><path class="c" d="M 271.009765625 439.8876953125 L 271.009765625 1537.8876953125 L 443.6468505859375 1537.8876953125 L 443.6468505859375 613.236083984375 L 443.6468505859375 612.236083984375 L 444.6468505859375 612.236083984375 L 736.3716430664062 612.236083984375 L 737.3716430664062 612.236083984375 L 737.3716430664062 613.236083984375 L 737.3716430664062 1537.8876953125 L 909.976318359375 1537.8876953125 L 909.976318359375 613.236083984375 L 909.976318359375 612.236083984375 L 910.976318359375 612.236083984375 L 1195.375366210938 612.236083984375 L 1196.37548828125 612.236083984375 L 1196.375366210938 613.2362060546875 L 1196.223754882812 1537.8876953125 L 1368.858154296875 1537.8876953125 L 1369.009643554688 439.8876953125 L 271.009765625 439.8876953125 M 270.009765625 438.8876953125 L 1370.009765625 438.8876953125 L 1369.858032226562 1538.8876953125 L 1195.2236328125 1538.8876953125 L 1195.375366210938 613.236083984375 L 910.976318359375 613.236083984375 L 910.976318359375 1538.8876953125 L 736.3716430664062 1538.8876953125 L 736.3716430664062 613.236083984375 L 444.6468505859375 613.236083984375 L 444.6468505859375 1538.8876953125 L 270.009765625 1538.8876953125 L 270.009765625 438.8876953125 Z"/></g></svg>